<svg width="20" height="20" viewBox="0 0 20 20" fill="none" xmlns="http://www.w3.org/2000/svg">
<path d="M17.0676 0.638829H2.37741C1.25061 0.638829 0.374203 1.55697 0.374203 2.64204V17.3323C0.374203 18.4591 1.25061 19.3355 2.37741 19.3355H8.09492V12.992H5.4657V9.98715H8.09492V7.73354C8.09492 5.14606 9.63906 3.68538 11.9761 3.68538C13.1447 3.68538 14.3132 3.89405 14.3132 3.89405V6.4398H13.0195C11.7257 6.4398 11.3084 7.23273 11.3084 8.06741V9.98715H14.188L13.729 12.992H11.3084V19.3355H17.0676C18.1527 19.3355 19.0708 18.4591 19.0708 17.3323V2.64204C19.0708 1.55697 18.1527 0.638829 17.0676 0.638829Z" fill="white"/>
</svg>
