<svg width="21" height="21" viewBox="0 0 21 21" fill="none" xmlns="http://www.w3.org/2000/svg">
<g id="icons8-instagram 1">
<g id="surface77144">
<path id="Vector" d="M6.47116 1.21265C3.60304 1.21265 1.27116 3.54452 1.27116 6.41265V13.6126C1.27116 16.4808 3.60304 18.8126 6.47116 18.8126H13.6712C16.5393 18.8126 18.8712 16.4808 18.8712 13.6126V6.41265C18.8712 3.54452 16.5393 1.21265 13.6712 1.21265H6.47116ZM14.8712 4.41265C15.3112 4.41265 15.6712 4.77265 15.6712 5.21265C15.6712 5.65265 15.3112 6.01265 14.8712 6.01265C14.4312 6.01265 14.0712 5.65265 14.0712 5.21265C14.0712 4.77265 14.4312 4.41265 14.8712 4.41265ZM10.0712 5.61265C12.4993 5.61265 14.4712 7.58452 14.4712 10.0126C14.4712 12.4408 12.4993 14.4126 10.0712 14.4126C7.64304 14.4126 5.67116 12.4408 5.67116 10.0126C5.67116 7.58452 7.64304 5.61265 10.0712 5.61265ZM10.0712 6.41265C8.0871 6.41265 6.47116 8.02858 6.47116 10.0126C6.47116 11.9967 8.0871 13.6126 10.0712 13.6126C12.0552 13.6126 13.6712 11.9967 13.6712 10.0126C13.6712 8.02858 12.0552 6.41265 10.0712 6.41265Z" fill="white"/>
</g>
</g>
</svg>
